<svg width="239" height="106" viewBox="0 0 239 106" fill="none" xmlns="http://www.w3.org/2000/svg">
<path d="M20.7176 85.0624C17.7663 85.0624 15.0217 84.6493 12.4837 83.8229C9.94561 82.9966 7.76171 81.8456 5.93195 80.37C4.16122 78.8354 2.92171 77.0056 2.21341 74.8807L14.8741 69.9227C15.5234 71.5163 16.4383 72.5493 17.6188 73.0215C18.7993 73.4346 19.8322 73.6412 20.7176 73.6412C21.662 73.6412 22.4293 73.4346 23.0195 73.0215C23.6098 72.6083 23.9049 72.018 23.9049 71.2507C23.9049 70.4244 23.4917 69.7456 22.6654 69.2144C21.839 68.6241 20.57 68.1224 18.8583 67.7093L15.2283 66.8239C11.2737 65.8205 8.29293 64.0793 6.2861 61.6002C4.27927 59.1212 3.27585 56.229 3.27585 52.9237C3.27585 48.3788 4.92854 44.8668 8.2339 42.3878C11.5983 39.9088 16.1432 38.6693 21.8685 38.6693C25.351 38.6693 28.2727 39.1119 30.6337 39.9973C33.0537 40.8237 35.031 42.0041 36.5656 43.5388C38.1002 45.0734 39.2807 46.8441 40.1071 48.851L27.8005 53.5434C27.3873 52.3629 26.679 51.5071 25.6756 50.9758C24.7312 50.4446 23.5507 50.179 22.1341 50.179C21.1307 50.179 20.3339 50.4151 19.7437 50.8873C19.2124 51.3595 18.9468 51.9202 18.9468 52.5695C18.9468 53.2778 19.36 53.8976 20.1863 54.4288C21.0717 54.901 22.3998 55.3732 24.1705 55.8454L27.8005 56.7307C30.5156 57.38 32.8766 58.3834 34.8834 59.741C36.8902 61.0395 38.4544 62.6627 39.5759 64.6105C40.6973 66.5583 41.2581 68.8012 41.2581 71.3393C41.2581 74.2315 40.4022 76.7105 38.6905 78.7763C36.9788 80.7832 34.5883 82.3473 31.519 83.4688C28.4498 84.5312 24.8493 85.0624 20.7176 85.0624ZM58.0101 85.0624C52.875 85.0624 48.8614 83.9115 45.9692 81.6095C43.136 79.2485 41.7194 75.8841 41.7194 71.5163C41.7194 66.9124 43.136 63.5185 45.9692 61.3346C48.8614 59.0917 52.875 57.9702 58.0101 57.9702H69.1658C68.9887 56.0224 68.4575 54.4583 67.5721 53.2778C66.6867 52.0383 65.034 51.4185 62.614 51.4185C61.1384 51.4185 59.9284 51.7727 58.984 52.481C58.0397 53.1893 57.2428 54.0156 56.5936 54.96L42.6933 50.5332C43.9328 48.1132 45.4675 46.0178 47.2972 44.2471C49.186 42.4763 51.3699 41.1188 53.8489 40.1744C56.387 39.171 59.1906 38.6693 62.2599 38.6693C66.9819 38.6693 71.025 39.5251 74.3894 41.2368C77.7538 42.9485 80.3214 45.339 82.0921 48.4083C83.8628 51.4776 84.7482 55.0485 84.7482 59.1212V84H69.7855L69.6084 80.1044C68.3099 81.7571 66.6572 82.9966 64.6504 83.8229C62.7026 84.6493 60.4892 85.0624 58.0101 85.0624ZM62.1714 73.9068C63.647 73.9068 64.916 73.6412 65.9784 73.11C67.0409 72.5788 67.8672 71.8115 68.4575 70.808C69.0477 69.8046 69.3428 68.6537 69.3428 67.3551V67.0895H64.2962C62.2304 67.0895 60.6367 67.4437 59.5153 68.1519C58.3938 68.8602 57.8331 69.8637 57.8331 71.1622C57.8331 72.0476 58.2167 72.7263 58.984 73.1985C59.7514 73.6707 60.8138 73.9068 62.1714 73.9068ZM88.7234 84V22.0244H104.66V84H88.7234ZM128.789 85.0624C123.3 85.0624 119.227 83.7639 116.571 81.1668C113.915 78.5698 112.587 74.8512 112.587 70.0112V53.0122H105.946V39.7317H112.587V25.92H128.523V39.7317H137.643V53.0122H128.523V65.6729C128.523 67.3256 128.759 68.5061 129.232 69.2144C129.704 69.9227 130.501 70.2768 131.622 70.2768C132.094 70.2768 132.685 70.1293 133.393 69.8341C134.101 69.539 134.662 69.2439 135.075 68.9488L140.476 80.4585C139.118 81.639 137.347 82.7015 135.164 83.6459C132.98 84.5902 130.855 85.0624 128.789 85.0624ZM163.775 85.0624C159.053 85.0624 154.862 84.0885 151.203 82.1407C147.602 80.1339 144.769 77.3893 142.703 73.9068C140.637 70.4244 139.604 66.4107 139.604 61.8659C139.604 57.321 140.608 53.3073 142.614 49.8249C144.68 46.3424 147.513 43.6273 151.114 41.6795C154.773 39.6727 158.935 38.6693 163.598 38.6693C168.32 38.6693 172.481 39.6727 176.081 41.6795C179.741 43.6273 182.574 46.3424 184.581 49.8249C186.647 53.3073 187.68 57.321 187.68 61.8659C187.68 66.4107 186.647 70.4244 184.581 73.9068C182.574 77.3893 179.77 80.1339 176.17 82.1407C172.569 84.0885 168.438 85.0624 163.775 85.0624ZM163.775 70.3654C165.25 70.3654 166.549 70.0112 167.67 69.3029C168.792 68.5356 169.677 67.5322 170.326 66.2927C170.976 64.9941 171.3 63.5185 171.3 61.8659C171.3 60.2132 170.976 58.7671 170.326 57.5276C169.677 56.229 168.762 55.2256 167.582 54.5173C166.46 53.75 165.132 53.3663 163.598 53.3663C162.122 53.3663 160.794 53.75 159.613 54.5173C158.492 55.2256 157.607 56.229 156.957 57.5276C156.308 58.7671 155.983 60.2132 155.983 61.8659C155.983 63.5185 156.308 64.9941 156.957 66.2927C157.607 67.5322 158.522 68.5356 159.702 69.3029C160.883 70.0112 162.24 70.3654 163.775 70.3654Z" fill="#1A2012"/>
<path d="M207.17 63.5353L199.975 56.3402L226.38 29.9357L233.575 37.1307L207.17 63.5353ZM207.306 38.8956V28.9854H234.457L231.946 38.7598L207.306 38.8956ZM224.547 56.1366L224.683 31.4968L234.457 28.9854V56.1366H224.547Z" fill="#BEDE00"/>
</svg>
